<?xml version="1.0" encoding="UTF-8"?>
<svg version="1.1" xmlns="http://www.w3.org/2000/svg" width="500" height="500">
<path d="M0 0 C0.98554871 -0.00976364 1.97109741 -0.01952728 2.98651123 -0.02958679 C4.591175 -0.00733536 4.591175 -0.00733536 6.22825623 0.0153656 C7.36372894 0.01142288 8.49920166 0.00748016 9.66908264 0.00341797 C13.42159665 -0.00329383 17.17289393 0.02587513 20.92527771 0.05613708 C23.53171554 0.06038691 26.13815714 0.06271573 28.74459839 0.0632019 C34.2062679 0.0678264 39.66758825 0.09144469 45.12913513 0.12767029 C51.44068289 0.16942275 57.75191646 0.18698654 64.0635944 0.19029003 C70.14036584 0.19354434 76.21702655 0.20865458 82.2937603 0.23028374 C84.87778517 0.2391734 87.4618184 0.24589977 90.04585457 0.25044441 C93.65367332 0.25947049 97.26115381 0.28184724 100.86888123 0.30833435 C102.47658134 0.30933136 102.47658134 0.30933136 104.11676025 0.31034851 C105.09948914 0.32032364 106.08221802 0.33029877 107.09472656 0.34057617 C107.94734353 0.34522668 108.7999605 0.34987719 109.67841434 0.35466862 C112.27520471 0.64759407 113.81996245 1.14844157 115.98387146 2.61473083 C118.81040424 6.2613336 118.26500224 10.74877056 118.24456787 15.14840698 C118.24839342 16.01809351 118.25221897 16.88778003 118.25616044 17.78382069 C118.26649438 20.70334864 118.26249753 23.62268007 118.25852966 26.54222107 C118.26287591 28.63319583 118.26805876 30.72416899 118.27401733 32.81513977 C118.28742773 38.49895955 118.28798375 44.18271292 118.28545403 49.86654544 C118.28438574 54.60828662 118.28926403 59.35001429 118.29405946 64.09175259 C118.30516162 75.27626144 118.305588 86.46073671 118.29954529 97.64524841 C118.29350331 109.19120469 118.30582062 120.73703917 118.32711536 132.28297466 C118.34471622 142.18964111 118.35073512 152.09626874 118.34747761 162.00295025 C118.34566226 167.92253718 118.34832614 173.84203723 118.36219215 179.76161003 C118.37474127 185.32742394 118.37285401 190.8930476 118.35978127 196.45885849 C118.3574096 198.50309754 118.36017118 200.54734987 118.36840439 202.59157372 C118.37882359 205.37929535 118.37081004 208.16637292 118.35809326 210.95407104 C118.36546755 211.76555035 118.37284183 212.57702965 118.38043958 213.41309923 C118.3365194 217.98062266 117.85173991 220.99552471 114.98387146 224.61473083 C112.55890877 225.82721218 111.00761266 225.7484624 108.29727173 225.76190186 C107.30887802 225.76905716 106.32048431 225.77621246 105.30213928 225.78358459 C103.66962723 225.78761795 103.66962723 225.78761795 102.00413513 225.79173279 C100.28936226 225.80158958 100.28936226 225.80158958 98.53994751 225.81164551 C94.74391114 225.8314119 90.94791437 225.84304796 87.15184021 225.85301208 C85.85807276 225.85708761 84.56430531 225.86116314 83.23133278 225.86536217 C77.09160044 225.88408204 70.95188804 225.89864525 64.81213301 225.90697414 C57.72534867 225.91674646 50.63887668 225.94306523 43.5522024 225.98347503 C37.41407294 226.01727456 31.27607481 226.0291192 25.13785744 226.03317833 C22.5267201 226.03805901 19.91558646 226.04971478 17.30451012 226.06821632 C13.65334889 226.09248144 10.00300802 226.09166545 6.35179138 226.08470154 C5.26952271 226.0975116 4.18725403 226.11032166 3.07218933 226.1235199 C2.07533615 226.11657608 1.07848297 226.10963226 0.05142212 226.10247803 C-1.24302684 226.10606056 -1.24302684 226.10606056 -2.56362629 226.10971546 C-6.09560688 225.39686144 -7.62191735 224.31808221 -10.01612854 221.61473083 C-10.51706742 218.54831779 -10.69249681 216.03452626 -10.65104675 212.96716309 C-10.65884671 212.08522591 -10.66664666 211.20328873 -10.67468297 210.29462618 C-10.69465959 207.33327843 -10.67881619 204.37320772 -10.6631012 201.41184998 C-10.66987484 199.29131315 -10.67877653 197.17078221 -10.68965149 195.05026245 C-10.71248272 189.28573846 -10.70359213 183.52166095 -10.68775606 177.75712895 C-10.67511532 171.72962424 -10.68683225 165.70215828 -10.69468689 159.6746521 C-10.70378945 149.5505231 -10.69178024 139.42657632 -10.66798401 129.30247498 C-10.64077908 117.59282286 -10.64958013 105.8836061 -10.67711604 94.17396456 C-10.69979745 84.12714186 -10.70301165 74.08045031 -10.68992269 64.03361028 C-10.68212198 58.0301474 -10.68110366 52.0268892 -10.69760513 46.02343941 C-10.71203613 40.37868793 -10.70205264 34.73449822 -10.67313385 29.08980751 C-10.66651547 27.01655257 -10.66843347 24.94325044 -10.67944717 22.87001419 C-10.69308446 20.0424627 -10.67600877 17.21671814 -10.65104675 14.38928223 C-10.66220036 13.56613008 -10.67335397 12.74297794 -10.68484557 11.89488178 C-10.61354409 7.73940815 -10.33800759 6.04994038 -7.78995419 2.60474205 C-4.82234667 0.47570692 -3.58772701 -0.00845973 0 0 Z " fill="#788993" transform="translate(79.01612854003906,200.38526916503906)"/>
<path d="M0 0 C0.94475046 -0.00568326 1.88950091 -0.01136651 2.86288017 -0.01722199 C6.03077364 -0.03014806 9.19739524 -0.00731459 12.36521912 0.0153656 C14.63530241 0.01350197 16.90538481 0.00946626 19.17546082 0.00341797 C25.34276695 -0.00657134 31.50961479 0.01463761 37.67685437 0.04189801 C44.12520812 0.06569728 50.5735523 0.06278282 57.02194214 0.0632019 C67.85048635 0.0678324 78.67883049 0.09134638 89.50730896 0.12767029 C100.64990845 0.16502373 111.79238062 0.18626645 122.93504333 0.18919373 C123.96467446 0.18946794 123.96467446 0.18946794 125.01510621 0.1897477 C125.70033815 0.18992667 126.38557008 0.19010564 127.09156662 0.19029003 C128.47122642 0.19065545 129.85088621 0.19102782 131.230546 0.1914072 C131.91093907 0.19159272 132.59133213 0.19177823 133.29234317 0.19196937 C144.55140737 0.19575503 155.81044746 0.21658194 167.06949115 0.23741031 C170.91487384 0.24364515 174.76025218 0.24727755 178.6056385 0.25044441 C184.6425771 0.25633659 190.67940215 0.27262637 196.71629333 0.29704857 C198.9350999 0.30450154 201.15392076 0.30856133 203.37273979 0.30902863 C206.39493267 0.3102824 209.41682411 0.32379697 212.43896484 0.34057617 C213.32271194 0.33816109 214.20645903 0.335746 215.11698633 0.33325773 C215.92653141 0.34032333 216.73607649 0.34738892 217.57015324 0.35466862 C218.61639412 0.357595 218.61639412 0.357595 219.68377119 0.3605805 C222.03683851 0.66380885 223.63121658 1.39230422 225.6559906 2.61473083 C227.49879286 5.39008628 227.90838788 7.60254111 227.92341614 10.89645386 C227.93621109 12.16860748 227.93621109 12.16860748 227.94926453 13.46646118 C227.94790497 14.84974358 227.94790497 14.84974358 227.94651794 16.26097107 C227.95323517 17.23863434 227.95995239 18.21629761 227.96687317 19.22358704 C227.98587831 22.45688451 227.98977848 25.68997473 227.9919281 28.92332458 C227.99835366 31.17007534 228.00508184 33.41682524 228.01210022 35.66357422 C228.02407885 40.37363119 228.02778037 45.08361478 228.02659607 49.79368591 C228.02639271 55.83099381 228.05371012 61.86783187 228.08814049 67.90502834 C228.11036866 72.54527959 228.11443488 77.18541697 228.11337662 81.82571602 C228.11573814 84.0516783 228.12459256 86.27764346 228.14004135 88.50355339 C228.15962068 91.61573675 228.15389485 94.72689649 228.14183044 97.83909607 C228.15306946 98.7592601 228.16430847 99.67942413 228.17588806 100.62747192 C228.13452691 104.82287346 228.01984335 107.03258683 225.75062561 110.66320801 C221.75423321 114.38655406 217.87936587 113.7657214 212.67947388 113.76863098 C211.26725145 113.77520436 211.26725145 113.77520436 209.82649928 113.78191054 C206.65206669 113.79533168 203.47766188 113.8014848 200.3032074 113.80760193 C198.03519056 113.8155002 195.767175 113.82376898 193.49916077 113.8323822 C186.03452256 113.85863121 178.56987865 113.87391139 171.10520935 113.88816833 C168.53910124 113.89352658 165.97299317 113.89890408 163.40688515 113.90430069 C152.73619739 113.92593245 142.06551252 113.94482234 131.39480877 113.95592308 C128.62517988 113.95885284 125.85555104 113.9618145 123.08592224 113.96482849 C122.05333806 113.96594757 122.05333806 113.96594757 120.99989358 113.96708925 C109.84532924 113.97974622 98.69092418 114.01297352 87.53643432 114.05463032 C76.08817942 114.09703429 64.64004538 114.1202085 53.19170505 114.12584364 C46.76227791 114.12950409 40.33312077 114.14159941 33.90376854 114.17394638 C27.85694549 114.20393247 21.81055715 114.21037248 15.76367569 114.19856262 C13.54204123 114.1983411 11.32038714 114.20671038 9.09882164 114.22421646 C6.06983855 114.24678941 3.04244767 114.23866785 0.01345825 114.22273254 C-0.86942236 114.23661463 -1.75230297 114.25049672 -2.66193753 114.26479948 C-6.98430048 114.20861981 -8.8179458 114.00483211 -12.38916874 111.35659981 C-14.36604636 108.58382169 -14.97054561 107.46474158 -14.97892761 104.13682556 C-14.99302673 103.27052017 -15.00712585 102.40421478 -15.02165222 101.51165771 C-15.01153107 100.57436325 -15.00140991 99.63706879 -14.99098206 98.67137146 C-14.99974365 97.67405502 -15.00850525 96.67673859 -15.01753235 95.64920044 C-15.03951992 92.35601663 -15.02497503 89.06417804 -15.0080719 85.77098083 C-15.01144019 83.48081708 -15.01629292 81.19065507 -15.02256775 78.90049744 C-15.02993825 74.10210643 -15.01922725 69.30418098 -14.99586487 64.50584412 C-14.96737771 58.35516046 -14.98378062 52.20556765 -15.01372719 46.05492401 C-15.03179493 41.32625611 -15.02604437 36.59784683 -15.01308823 31.86917114 C-15.0097528 29.60135774 -15.01384603 27.33352085 -15.02548599 25.06573486 C-15.03818541 21.89588733 -15.01882856 18.72780617 -14.99098206 15.55809021 C-15.00110321 14.62079575 -15.01122437 13.68350128 -15.02165222 12.71780396 C-15.0075531 11.85149857 -14.99345398 10.98519318 -14.97892761 10.09263611 C-14.97704248 9.34418175 -14.97515736 8.59572739 -14.9732151 7.82459259 C-12.77026387 0.08750813 -6.78578072 -0.10161137 0 0 Z " fill="#788A93" transform="translate(220.34400939941406,72.38526916503906)"/>
<path d="M0 0 C0.7921281 -0.00583219 1.5842562 -0.01166439 2.40038818 -0.01767331 C3.26468053 -0.01389399 4.12897288 -0.01011467 5.01945591 -0.00622082 C5.94222861 -0.01004636 6.86500132 -0.01387191 7.81573683 -0.01781338 C10.91491515 -0.02815116 14.01390847 -0.02414974 17.1130991 -0.02018261 C19.33215094 -0.02452864 21.55120127 -0.02971142 23.77024937 -0.03567028 C29.80323053 -0.04908296 35.83614913 -0.04963644 41.86914229 -0.04710698 C46.90166657 -0.04603885 51.93417811 -0.05091657 56.96669966 -0.0557124 C69.51589497 -0.06745056 82.06505985 -0.06657801 94.61425532 -0.06015559 C105.51322248 -0.05498603 116.41210027 -0.06624248 127.31104975 -0.08525381 C138.50171778 -0.10462438 149.69235324 -0.11259804 160.88304049 -0.10913056 C167.16591927 -0.10731494 173.4487162 -0.10998169 179.73158169 -0.1238451 C185.63883463 -0.13639151 191.54590829 -0.13450952 197.45315838 -0.12143421 C199.62317686 -0.11906196 201.79320784 -0.12182621 203.96321201 -0.13005733 C206.92170439 -0.14047149 209.87958928 -0.13246691 212.83805943 -0.11974621 C213.70012105 -0.12712049 214.56218268 -0.13449478 215.45036739 -0.14209253 C220.11257901 -0.0998163 223.21161517 0.21226386 226.99224949 3.25447559 C228.13505134 5.5400793 228.12730229 6.83074567 228.14614964 9.37161732 C228.1547501 10.23379871 228.16335056 11.09598011 228.17221165 11.98428822 C228.17860157 13.40640865 228.17860157 13.40640865 228.18512058 14.8572588 C228.19738682 16.35257633 228.19738682 16.35257633 228.20990086 17.8781023 C228.234776 21.18714765 228.2512756 24.49615006 228.26568699 27.80525684 C228.27101067 28.93353586 228.27633434 30.06181488 228.28181934 31.22428417 C228.30855908 37.1951972 228.32793209 43.16608924 228.34234715 49.13704395 C228.35900447 55.31122275 228.40378955 61.48486874 228.45471859 67.6588459 C228.4883364 72.40031025 228.49991858 77.14164724 228.50557423 81.88321972 C228.5123009 84.15944653 228.52755945 86.43566456 228.55146503 88.71177578 C228.58300357 91.89613161 228.58317001 95.07903847 228.57574558 98.2635088 C228.59215092 99.2055164 228.60855625 100.14752399 228.62545872 101.11807728 C228.612981 102.42403858 228.612981 102.42403858 228.6002512 103.75638294 C228.60521642 104.88490917 228.60521642 104.88490917 228.61028194 106.0362339 C227.60850591 109.6318078 225.96794529 111.04370895 222.99224949 113.25447559 C219.91081765 113.96828767 216.91404658 113.92129451 213.76213169 113.87593555 C212.82963189 113.88232438 211.89713209 113.8887132 210.93637472 113.89529562 C207.80995113 113.91056309 204.68479118 113.89007225 201.5584116 113.86970997 C199.31788303 113.8732106 197.07735694 113.87886852 194.83683872 113.88652515 C188.75011885 113.90079011 182.66384979 113.88369495 176.57717299 113.86023998 C170.21289361 113.84015822 163.84863344 113.84600911 157.48433018 113.84834766 C146.79702443 113.84829407 136.10991254 113.82864589 125.42266941 113.79646778 C114.425554 113.76336896 103.42862269 113.74921086 92.43145847 113.75545216 C79.17912481 113.76293635 65.92688872 113.75557281 52.67456341 113.73379993 C47.61203537 113.72561477 42.54954792 113.72291844 37.48701382 113.72449207 C31.52883037 113.72536945 25.57086766 113.7111944 19.61274242 113.68526554 C17.42296385 113.67808873 15.23316182 113.67602736 13.04337406 113.67938328 C10.06046917 113.68308345 7.07821373 113.66840132 4.09538364 113.64888477 C3.2233094 113.6542127 2.35123515 113.65954062 1.45273441 113.66503 C-2.05623283 113.62526069 -4.38298593 113.58777795 -7.5141964 111.91732502 C-9.96630855 109.18726439 -10.13348255 106.59530449 -10.14146328 103.08627796 C-10.14572826 102.23810505 -10.14999325 101.38993214 -10.15438747 100.51605701 C-10.15393429 99.58870243 -10.1534811 98.66134785 -10.15301418 97.70589161 C-10.1563728 96.72676807 -10.15973141 95.74764454 -10.1631918 94.73885059 C-10.1727073 91.49534818 -10.17464515 88.25189735 -10.17571926 85.00838184 C-10.17893121 82.75780688 -10.18229524 80.50723212 -10.18580532 78.2566576 C-10.19179794 73.53644292 -10.19364506 68.81624655 -10.19305325 64.09602833 C-10.19295157 58.04192354 -10.20660906 51.98793588 -10.22382545 45.93385887 C-10.2349327 41.2850843 -10.23697285 36.63633817 -10.23644352 31.98755169 C-10.23762536 29.7551931 -10.24205851 27.52283381 -10.24977589 25.29048824 C-10.25955078 22.17105953 -10.25670765 19.05188676 -10.25067043 15.93245411 C-10.25628994 15.00712376 -10.26190945 14.0817934 -10.26769924 13.12842274 C-10.26350475 12.27743 -10.25931026 11.42643726 -10.25498867 10.54965687 C-10.25553344 9.81243176 -10.25607821 9.07520666 -10.25663948 8.3156414 C-9.95836164 5.84546327 -9.38712222 4.32881775 -8.00775051 2.25447559 C-5.25510519 0.59667262 -3.19624845 0.00406041 0 0 Z " fill="#FB7C25" transform="translate(219.00775051116943,200.7455244064331)"/>
<path d="M0 0 C1.13547272 -0.00394272 2.27094543 -0.00788544 3.44082642 -0.01194763 C7.19334043 -0.01865943 10.94463771 0.01050953 14.69702148 0.04077148 C17.30345931 0.04502131 19.90990092 0.04735013 22.51634216 0.0478363 C27.97801168 0.0524608 33.43933202 0.07607909 38.90087891 0.11230469 C45.21242666 0.15405715 51.52366024 0.17162094 57.83533818 0.17492443 C63.91210961 0.17817874 69.98877032 0.19328898 76.06550407 0.21491814 C78.64952894 0.2238078 81.23356218 0.23053417 83.81759834 0.23507881 C87.42541709 0.24410489 91.03289759 0.26648164 94.640625 0.29296875 C96.24832512 0.29396576 96.24832512 0.29396576 97.88850403 0.29498291 C98.87123291 0.30495804 99.85396179 0.31493317 100.86647034 0.32521057 C101.71908731 0.32986108 102.57170427 0.33451159 103.45015812 0.33930302 C106.04694849 0.63222847 107.59170623 1.13307597 109.75561523 2.59936523 C111.5984175 5.37472068 112.00801252 7.58717551 112.02304077 10.88108826 C112.03583572 12.15324188 112.03583572 12.15324188 112.04888916 13.45109558 C112.0475296 14.83437798 112.0475296 14.83437798 112.04614258 16.24560547 C112.0528598 17.22326874 112.05957703 18.20093201 112.0664978 19.20822144 C112.08550295 22.44151891 112.08940312 25.67460913 112.09155273 28.90795898 C112.0979783 31.15470974 112.10470647 33.40145964 112.11172485 35.64820862 C112.12370349 40.35826559 112.12740501 45.06824918 112.1262207 49.77832031 C112.12601734 55.81562821 112.15333476 61.85246627 112.18776512 67.88966274 C112.20999329 72.52991399 112.21405951 77.17005137 112.21300125 81.81035042 C112.21536278 84.0363127 112.22421719 86.26227786 112.23966599 88.48818779 C112.25924532 91.60037115 112.25351948 94.71153089 112.24145508 97.82373047 C112.25269409 98.7438945 112.26393311 99.66405853 112.2755127 100.61210632 C112.23415154 104.80750785 112.11946799 107.01722123 109.85025024 110.64784241 C106.80627865 113.4838401 105.16368309 113.72680989 101.10697937 113.75326538 C100.12699982 113.76186584 99.14702026 113.77046631 98.13734436 113.77932739 C97.05835373 113.78358734 95.9793631 113.78784729 94.86767578 113.79223633 C93.16753326 113.80450256 93.16753326 113.80450256 91.43304443 113.8170166 C87.66947972 113.84189889 83.90595277 113.85839294 80.14233398 113.87280273 C78.21823165 113.88078825 78.21823165 113.88078825 76.25525856 113.88893509 C70.86541059 113.91016967 65.47557496 113.9292998 60.08569622 113.94055748 C52.36182889 113.95679632 44.63846466 113.98997219 36.91478699 114.04695833 C30.82898031 114.09032881 24.74337098 114.10630257 18.6574192 114.11268997 C16.06859568 114.11941994 13.47977997 114.13468686 10.89105797 114.15858078 C7.27089289 114.19009126 3.65200369 114.19028962 0.03173828 114.18286133 C-1.04117966 114.19926666 -2.1140976 114.215672 -3.2195282 114.23257446 C-7.75208927 114.19442944 -10.4791502 114.06247574 -14.40870667 111.68435669 C-17.01839072 107.29859156 -16.94558144 103.67755436 -16.89135742 98.65600586 C-16.90011902 97.65868942 -16.90888062 96.66137299 -16.91790771 95.63383484 C-16.93989528 92.34065103 -16.9253504 89.04881244 -16.90844727 85.75561523 C-16.91181556 83.46545148 -16.91666829 81.17528947 -16.92294312 78.88513184 C-16.93031362 74.08674083 -16.91960262 69.28881538 -16.89624023 64.49047852 C-16.86775307 58.33979486 -16.88415599 52.19020205 -16.91410255 46.03955841 C-16.9321703 41.31089051 -16.92641974 36.58248123 -16.91346359 31.85380554 C-16.91012817 29.58599214 -16.9142214 27.31815525 -16.92586136 25.05036926 C-16.93856078 21.88052173 -16.91920392 18.71244057 -16.89135742 15.54272461 C-16.90147858 14.60543015 -16.91159973 13.66813568 -16.92202759 12.70243835 C-16.8541543 8.53203671 -16.57299146 6.15083938 -14.40672302 2.5153656 C-9.66886523 -0.35521197 -5.44246778 -0.07546921 0 0 Z " fill="#788993" transform="translate(85.244384765625,72.400634765625)"/>
</svg>
